inDegrees=no
num_controls=7
num_derivatives=13
num_iterations=90
num_multipliers=7
num_parameters=0
num_slacks=7
num_states=26
objective=0.516950
objective_accelerations=0.039749
objective_balance=0.002326
objective_effort=0.044732
objective_height=0.418466
objective_ligament=0.011676
solver_duration=1205.794517
status=Solve_Succeeded
success=true
DataType=double
version=3
OpenSimVersion=4.5
endheader
time	/jointset/ground_pelvis/pelvis_tilt/value	/jointset/ground_pelvis/pelvis_tx/value	/jointset/ground_pelvis/pelvis_ty/value	/jointset/hip_l/hip_flexion_l/value	/jointset/hip_l/hip_adduction_l/value	/jointset/hip_l/hip_rotation_l/value	/jointset/back/lumbar_extension/value	/jointset/patellofemoral_l/patellar_flexion_l/value	/jointset/knee_l/knee_flexion_l/value	/jointset/knee_l/knee_adduction_l/value	/jointset/knee_l/knee_rotation_l/value	/jointset/ankle_l/ankle_angle_l/value	/jointset/subtalar_l/subtalar_angle_l/value	/jointset/ground_pelvis/pelvis_tilt/speed	/jointset/ground_pelvis/pelvis_tx/speed	/jointset/ground_pelvis/pelvis_ty/speed	/jointset/hip_l/hip_flexion_l/speed	/jointset/hip_l/hip_adduction_l/speed	/jointset/hip_l/hip_rotation_l/speed	/jointset/back/lumbar_extension/speed	/jointset/patellofemoral_l/patellar_flexion_l/speed	/jointset/knee_l/knee_flexion_l/speed	/jointset/knee_l/knee_adduction_l/speed	/jointset/knee_l/knee_rotation_l/speed	/jointset/ankle_l/ankle_angle_l/speed	/jointset/subtalar_l/subtalar_angle_l/speed	/forceset/tau_hip_flexion_l	/forceset/tau_hip_adduction_l	/forceset/tau_hip_rotation_l	/forceset/tau_knee_flexion_l	/forceset/tau_ankle_angle_l	/forceset/tau_subtalar_angle_l	/forceset/tau_lumbar_extension	lambda_cid13_p0	lambda_cid13_p1	lambda_cid13_p2	lambda_cid13_p3	lambda_cid13_p4	lambda_cid13_p5	lambda_cid14_p0	/jointset/ground_pelvis/pelvis_tilt/accel	/jointset/ground_pelvis/pelvis_tx/accel	/jointset/ground_pelvis/pelvis_ty/accel	/jointset/hip_l/hip_flexion_l/accel	/jointset/hip_l/hip_adduction_l/accel	/jointset/hip_l/hip_rotation_l/accel	/jointset/back/lumbar_extension/accel	/jointset/patellofemoral_l/patellar_flexion_l/accel	/jointset/knee_l/knee_flexion_l/accel	/jointset/knee_l/knee_adduction_l/accel	/jointset/knee_l/knee_rotation_l/accel	/jointset/ankle_l/ankle_angle_l/accel	/jointset/subtalar_l/subtalar_angle_l/accel	gamma_cid13_p0	gamma_cid13_p1	gamma_cid13_p2	gamma_cid13_p3	gamma_cid13_p4	gamma_cid13_p5	gamma_cid14_p0
1	-0.1731993122816309	-0.09717316254125448	0.7254172351364478	1.273789075013489	-0.3280343948726119	-0.005621319177469979	-0.9598977783666534	1.149920553699514	1.14992055369894	-0.08209393051869131	-0.1745180208035979	0.1265322087910514	0.005974142873382705	0.101612007818983	0.02556565204561595	0.06534141295788121	-0.2827526026060124	0.0004416591378234101	-0.06153661585422423	-0.004997446725611625	-0.1601992832653458	-0.1601992832653695	0.0001773338715009332	-0.0001081410982952086	0.0128534957174968	0.006023078106598649	-0.4098775417213254	0.03045978299246261	-0.005218358581716765	-0.2845606120890337	0.1156598851421236	0.03160492792480089	0.4413775563659881	-13.51762892487067	-10.87700956457085	0.7290292823025118	5.232616852528461	-787.1586763935674	-57.74381519921459	-2.0239082327178	1.121068650673963	0.1959838265609426	1.252917454882142	-4.721807132074444	-0.01489481846693534	-1.392765914320474	0.3244900096350337	-4.069076746760805	-4.069076746761596	-0.2015804674051119	-0.009177100734153674	-0.7341402489931181	-0.2578678745586678	-1.020656853188663e-08	-1.138397994736658e-08	3.346991763776518e-08	6.622082879702751e-09	-2.358805447210188e-08	4.752704734786346e-08	-9.84736370149262e-09
1.01	-0.1721274856651289	-0.09690765581608309	0.7261331442045472	1.270726118663432	-0.3280300945519142	-0.006306496477406694	-0.9599308885449391	1.148115309799749	1.148115309799091	-0.08210110553871888	-0.1745188783395173	0.1266241427956803	0.006022232616750159	0.112766273758799	0.02754329260553108	0.0778366170918872	-0.3298547966978708	0.0004267952620354194	-0.07549742828268943	-0.001617191413621343	-0.2008591180961717	-0.2008591180961874	-0.001611771718324862	-6.047139326150269e-05	0.005527646941538553	0.003602229817571266	-0.4092368379386871	0.03068532357958274	-0.005248798130661566	-0.2843796516787187	0.1155863096283584	0.03165423798426029	0.4411734515932	-13.52288442295104	-10.90452315032541	0.7414323965201258	5.099034535620236	-786.9881846311476	-57.78878354688781	-2.063984995063043	1.114548021110442	0.1997962048327636	1.247248588139818	-4.706846972989521	0.006475662456181371	-1.397538647537767	0.3459029228245558	-4.065877461143456	-4.065877461141952	-0.1674981620280334	0.01218407239312549	-0.7326572916567995	-0.2330915238317232	-1.473089929666415e-08	-1.905931768663681e-08	4.515418266091915e-08	1.041972245600622e-08	-2.879243441740959e-08	5.343619460080139e-08	-1.297545590101947e-08
1.02	-0.1709437278981304	-0.09662214427848713	0.7269738906530825	1.267191656087399	-0.3280256913030551	-0.007131241849723764	-0.9599299742441858	1.145903179429697	1.14590317942896	-0.08212615612610455	-0.174519170165131	0.1266426482925979	0.006046334233675948	0.1239982379176039	0.02956661453052578	0.09030888904508405	-0.377053847799651	0.0004622447698854658	-0.08945023032828524	0.001807449132101627	-0.241576577322999	-0.2415765773230107	-0.003397779598420301	5.000962609182244e-06	-0.001832205824806178	0.001225452818263874	-0.4085961341560946	0.03091086416668913	-0.005279237679636064	-0.2841986912684065	0.1155127341145969	0.03170354804370581	0.4409693468203716	-13.53860605002562	-10.93028646908379	0.7536505252712191	5.000524442270938	-786.960115646905	-57.82670807750491	-2.113610175846161	1.136608294471737	0.2051200995768514	1.248331018720314	-4.7411785340588	-0.004832141739317623	-1.391163837746585	0.3333670563813688	-4.080601625961084	-4.080601625962686	-0.2009609254590381	-0.005616570566736648	-0.7409410470704261	-0.2490536166146624	-1.815528985135524e-08	-2.75144322579623e-08	5.675405231354098e-08	1.143683631634791e-08	-3.172180493023651e-08	5.911609105276275e-08	-1.6322622947536e-08
1.03	-0.1696478771154213	-0.09631602835880054	0.7279391008396791	1.263185494951617	-0.3280206968831166	-0.008095346068864723	-0.9598930051346858	1.143283913024035	1.143283913023673	-0.08216910163958109	-0.1745187653770456	0.1265875689206429	0.00604693705189932	0.1351229674135487	0.03167860921314211	0.1027149709500867	-0.4241168926101514	0.0005434718122792031	-0.1033596780032946	0.005753092463194941	-0.2822537982148539	-0.2822537982149129	-0.005193134062064783	7.259224922995112e-05	-0.009170744911371098	-0.001092646731655723	-0.4085896715581867	0.03121093803543099	-0.005317299950804967	-0.2836447931567778	0.1155551085828438	0.0318388641234485	0.4416542690507917	-13.51493979357086	-11.00672386450866	0.781286452050367	4.561524489945126	-787.1582669068567	-57.88270043852647	-2.173093474407886	1.093060730005448	0.2175476146402003	1.23401323455774	-4.679647201815749	0.01562303299985487	-1.389213007159525	0.4501709248608963	-4.0578425269352	-4.057842526941303	-0.1691055886128036	0.01245839856163612	-0.7283739955935861	-0.2213538389138603	-2.156845652635157e-08	-3.597750373573733e-08	6.835306078891248e-08	1.242557746530222e-08	-3.462796106109932e-08	6.47936482108366e-08	-1.967202545167488e-08
